<?xml version="1.0" standalone="no"?><!DOCTYPE svg PUBLIC "-//W3C//DTD SVG 1.1//EN" "http://www.w3.org/Graphics/SVG/1.1/DTD/svg11.dtd"><svg t="1539331029627" class="icon" style="" viewBox="0 0 1024 1024" version="1.1" xmlns="http://www.w3.org/2000/svg" p-id="4218" xmlns:xlink="http://www.w3.org/1999/xlink" width="200" height="200"><defs><style type="text/css"></style></defs><path d="M494.522 45.51333333c-45.7 6.341-66.026 85.663-72.025 117.68-3.844 20.486-5.639 85.727-4.657 191.327-12.16 6.96-43.277 24.822-82.36 47.34-10.475-11.662-40.453-44.62-54.632-55.886-25.983-20.643-38.27 7.1-38.232 26.347 0.025 19.53399999 0 74.447 0 83.19-71.00299999 41.183-141.404 82.377-165.939 97.99-55.61099999 35.39-29.31800001 104.158 0 101.116 26.372-2.74 292.382-71.706 345.574-85.545 0.09 2.951 0.15099999 5.732 0.246 8.703 2.394 80.854 11.654 149.065 22.787 204.36-18.161 16.957-78.323 72.932-115.816 106.084-45.596 40.314-10.208 62.112 5.054 59.662 43.798-7.03 137.783-34.86 145.494-37.157 3.801 15.28800001 9.184 24.915 15.181 25.00599999 0.024 0.055 0.064 0.102 0.09 0.15400001 0.026-0.052 0.076-0.10599999 0.108-0.156 5.988-0.114 11.363-9.735 15.156-25.005 7.698 2.288 101.695 30.126 145.498 37.157 15.26 2.44999999 50.65-19.348 5.056-59.662-37.49699999-33.152-97.658-89.126-115.818-106.084 11.137-55.295 20.395-123.506 22.79-204.36 0.091-2.971 0.153-5.752 0.243-8.703 53.193 13.839 319.204 82.805 345.573 85.545 29.322 3.042 55.613-65.727 0-101.115-24.53099999-15.616-94.933-56.808-165.935-97.99199999 0-8.742-0.027-63.655 0-83.189 0.036-19.248-12.25-46.99-38.234-26.34700001-14.178 11.267-44.153 44.224-54.635 55.886a39920.788 39920.788 0 0 0-82.355-47.34c0.98-105.6-0.817-170.84-4.659-191.326-5.999-32.017-31.01-112.96-73.553-117.68" fill="#5876FA" p-id="4219"></path></svg>